<svg id="Capa_1" enable-background="new 0 0 512 512" height="512" viewBox="0 0 512 512" width="512" xmlns="http://www.w3.org/2000/svg"><g><g><circle cx="255.998" cy="256" fill="#b5dbfd" r="255.997"/><path d="m511.998 256c0 141.388-114.612 256-256 256-7.472 0-14.873-.323-22.178-.958 131.006-11.232 233.823-121.126 233.823-255.042s-102.817-243.81-233.822-255.042c7.304-.635 14.705-.958 22.177-.958 141.388 0 256 114.612 256 256z" fill="#8dcafc"/><circle cx="255.998" cy="256" fill="#64b9fc" r="194.537"/><path d="m450.531 256c0 107.439-87.094 194.533-194.533 194.533-7.496 0-14.897-.419-22.178-1.257 96.998-11.006 172.368-93.333 172.368-193.276s-75.37-182.27-172.367-193.275c7.281-.838 14.681-1.257 22.178-1.257 107.438-.001 194.532 87.093 194.532 194.532z" fill="#31a7fb"/><circle cx="255.998" cy="256" fill="#1785f8" r="134.353"/><path d="m390.357 256c0 74.197-60.162 134.359-134.359 134.359-6.922 0-13.735-.527-20.381-1.533 64.533-9.82 113.977-65.551 113.977-132.826s-49.444-123.006-113.977-132.826c6.646-1.006 13.46-1.533 20.381-1.533 74.197 0 134.359 60.162 134.359 134.359z" fill="#1576f7"/><g fill="#fdef63"><path d="m96.336 180.632c17.488-36.898 47.396-66.807 84.294-84.294 6.214-2.945 10.114-9.273 10.114-16.149 0-13.184-13.746-21.888-25.653-16.229-44.239 21.025-80.108 56.894-101.133 101.133-5.659 11.908 3.044 25.653 16.229 25.653 6.876.001 13.204-3.9 16.149-10.114z"/><path d="m331.366 96.338c36.898 17.488 66.807 47.396 84.294 84.294 2.945 6.214 9.273 10.114 16.149 10.114 13.184 0 21.888-13.746 16.229-25.653-21.025-44.239-56.894-80.108-101.133-101.133-11.908-5.659-25.653 3.044-25.653 16.229 0 6.876 3.9 13.204 10.114 16.149z"/><path d="m180.631 415.662c-36.898-17.488-66.807-47.396-84.294-84.294-2.945-6.214-9.273-10.114-16.149-10.114-13.184 0-21.888 13.746-16.229 25.653 21.025 44.239 56.894 80.108 101.133 101.133 11.908 5.659 25.653-3.044 25.653-16.229 0-6.876-3.901-13.204-10.114-16.149z"/><path d="m415.66 331.368c-17.488 36.898-47.396 66.807-84.294 84.294-6.214 2.945-10.114 9.273-10.114 16.149 0 13.184 13.746 21.888 25.653 16.229 44.239-21.025 80.108-56.894 101.133-101.133 5.659-11.908-3.044-25.653-16.229-25.653-6.876-.001-13.204 3.9-16.149 10.114z"/></g></g><path d="m256 369.367c-20.686 0-37.626-16.343-38.589-36.794-6.618-3.836-12.709-8.524-18.207-14.023-16.687-16.686-25.877-38.901-25.877-62.55s9.19-45.864 25.877-62.551c5.503-5.504 11.595-10.195 18.207-14.031.967-20.448 17.905-36.785 38.588-36.785 18.661 0 34.274 13.299 37.858 30.918 4.839 1.89 9.515 4.212 13.998 6.952 8.806 5.382 14.988 13.87 17.408 23.9 2.421 10.032.79 20.405-4.593 29.21-7.073 11.574-19.402 18.486-32.979 18.486-7.097 0-14.056-1.961-20.127-5.669-1.775-1.086-3.787-1.658-5.823-1.658-2.963 0-5.77 1.176-7.904 3.31-4.366 4.366-4.366 11.471 0 15.837 2.134 2.134 4.942 3.31 7.905 3.31 2.035 0 4.046-.572 5.817-1.655 6.072-3.711 13.033-5.673 20.132-5.673 13.574 0 25.902 6.911 32.979 18.488 5.382 8.804 7.013 19.177 4.593 29.209-2.421 10.03-8.603 18.518-17.407 23.899-4.484 2.741-9.16 5.062-13.999 6.954-3.584 17.617-19.197 30.916-37.857 30.916z" fill="#1576f7"/><path d="m278.308 283.153c-12.56 7.678-28.613 5.758-39.038-4.666-12.399-12.399-12.399-32.574 0-44.974 10.425-10.426 26.478-12.342 39.038-4.666 8.497 5.191 19.593 2.515 24.785-5.981 5.193-8.495 2.515-19.592-5.98-24.784-7.276-4.447-15.102-7.375-23.085-8.855v-7.963c0-9.957-8.071-18.028-18.028-18.028s-18.028 8.071-18.028 18.028v11.14c-8.862 3.327-17.137 8.552-24.198 15.614-26.457 26.457-26.457 69.507 0 95.964 7.061 7.061 15.338 12.274 24.198 15.601v11.152c0 9.957 8.071 18.028 18.028 18.028s18.028-8.071 18.028-18.028v-7.961c7.983-1.48 15.809-4.411 23.085-8.857 8.495-5.192 11.173-16.289 5.98-24.784-5.194-8.495-16.288-11.174-24.785-5.98z" fill="#b5dbfd"/></g></svg>