<?xml version="1.0"?>
<svg xmlns="http://www.w3.org/2000/svg" xmlns:xlink="http://www.w3.org/1999/xlink" xmlns:svgjs="http://svgjs.com/svgjs" version="1.1" width="512" height="512" x="0" y="0" viewBox="0 0 512 512" style="enable-background:new 0 0 512 512" xml:space="preserve" class=""><g><g xmlns="http://www.w3.org/2000/svg" id="FLAT"><path d="m46.82947 280.32349-18.17438 44.42627c-20.07483 49.07202 26.63727 114.61962 104.33441 146.40478s156.957 17.77149 177.03186-31.30029l18.17444-44.42625z" fill="#2f6a57" data-original="#00b378" class=""/><path d="m203.95905 487.83154 24.74945-60.49954-14.8086-6.05762-26.53222 64.85718q8.41562 1.21109 16.59137 1.69998z" fill="#46c89d" data-original="#46c89d" class=""/><path d="m125.63507 468.0033q3.62906 1.62523 7.35443 3.15124 3.72583 1.52417 7.45435 2.90686l29.12842-71.20251-14.8086-6.0586z" fill="#46c89d" data-original="#46c89d" class=""/><path d="m70.68024 433.30859q6.16854 5.3705 13.02594 10.416l28.73913-70.251-14.80859-6.05859z" fill="#46c89d" data-original="#46c89d" class=""/><path d="m46.57568 407.71558 25.40479-62.10083-14.80859-6.05762-21.2096 51.8457a133.23843 133.23843 0 0 0 10.6134 16.31275z" fill="#46c89d" data-original="#46c89d" class=""/><ellipse cx="187.513" cy="337.876" fill="#46c89d" rx="96" ry="152" transform="matrix(.379 -.926 .926 .379 -196.206 383.497)" data-original="#46c89d" class=""/><path d="m248.79248 311.71777a31.79183 31.79183 0 0 0 -17.39355-17.24218l-7.5766-3.09949 5.76068-14.08118-14.8086-6.05859-5.76086 14.08154-14.63715-5.98787 6.05817-14.809-14.80857-6.05811-6.05825 14.80911-14.80847-6.0581-6.0586 14.80859 14.809 6.05823-30.29052 74.04382-14.80848-6.0581-6.05863 14.80856 14.809 6.05823-6.058 14.80847 14.80859 6.05859 6.05817-14.809 14.80865 6.05811-6.05823 14.80847 14.8086 6.05859 6.05841-14.80883 7.40448 3.02905a32.00012 32.00012 0 0 0 41.62644-41.99268c-.26458-.63086-.55413-1.24621-.85492-1.854a31.94552 31.94552 0 0 0 19.02924-42.57227zm-32.876 62.85987a16.02041 16.02041 0 0 1 -20.8667 8.75048l-37.022-15.1455 12.11609-29.61731 37.0221 15.14514a16.00042 16.00042 0 0 1 8.75048 20.86719zm18.17432-44.42627a16.02066 16.02066 0 0 1 -20.8667 8.75049l-37.0221-15.14527 12.11627-29.6178 37.022 15.14539a16.00041 16.00041 0 0 1 8.75049 20.86719z" fill="#2f6a57" data-original="#00b378" class=""/><path d="m464.26334 355.7622-36.49781 31.17546c-40.31437 34.43547-117.19511 10.60561-171.71793-53.22548s-66.04106-143.49187-25.72668-177.92733l36.49781-31.17547" fill="#e5707f" data-original="#e5707f" class=""/><path d="m300.19824 284.4668-50.05688 42.04675q2.86687 3.62787 5.90625 7.19861 2.18481 2.55762 4.41943 5.02331l50.02222-42.0177z" fill="#f78f9c" data-original="#f78f9c" class=""/><path d="m296.4856 371.16748q6.89977 4.97406 13.92138 9.20154l45.43726-38.16638-10.291-12.251z" fill="#f78f9c" data-original="#f78f9c" class=""/><path d="m360.91064 400.63379 47.74707-40.10645-10.291-12.251-56.20911 47.21435a135.04559 135.04559 0 0 0 18.75304 5.1431z" fill="#f78f9c" data-original="#f78f9c" class=""/><ellipse cx="365.673" cy="240.163" fill="#f78f9c" rx="96" ry="152" transform="matrix(.765 -.644 .644 .765 -68.729 292.024)" data-original="#f78f9c" class=""/><path d="m239.08929 486.47131a133.22251 133.22251 0 0 0 19.004-4.19677l23.0874-56.43567-14.80859-6.0586z" fill="#46c89d" data-original="#46c89d" class=""/><path d="m308.20215 89.71857-29.09-38.18073-241.81125 184.23716 29.0901 38.18069c32.132 42.17322 112.31146 35.11853 179.08576-15.7572 66.77434-50.87561 94.85747-126.30664 62.72539-168.47992z" fill="#3f589e" data-original="#3f589e" class=""/><g fill="#576cd3"><path d="m318.4585 155.98224-39.9878-52.48419-12.72656 9.69629 46.70239 61.29724a133.22274 133.22274 0 0 0 6.01197-18.50934z" fill="#576cd3" data-original="#576cd3" class=""/><path d="m295.817 205.467-47.27014-62.04169-12.72657 9.69629 50.12378 65.787q5.30861-6.6412 9.87293-13.4416z" fill="#576cd3" data-original="#576cd3" class=""/><path d="m207.54248 195.20947-12.72656 9.69629 44.21765 58.03589q3.24-2.30493 6.44318-4.74316 3.202-2.4397 6.28332-4.95331z" fill="#576cd3" data-original="#576cd3" class=""/><path d="m151.19678 226.85938-12.72657 9.69628 42.80488 56.1814q7.75551-2.59624 15.58007-5.95117z" fill="#576cd3" data-original="#576cd3" class=""/><path d="m94.14307 231.17871-12.72657 9.69629 46.1388 60.557a133.22341 133.22341 0 0 0 19.44116-.88343z" fill="#576cd3" data-original="#576cd3" class=""/><ellipse cx="158.207" cy="143.656" rx="152" ry="96" transform="matrix(.795 -.606 .606 .795 -54.698 125.268)" fill="#576cd3" data-original="#576cd3" class=""/></g><path d="m240.931 80.628-116.663 18.484-48.786 107.573 116.663-18.484z" fill="#92afef" data-original="#92afef" class=""/><path d="m32.33887 100.4624-13.27832-8.92578c13.42871-19.97705 31.45068-38.85937 52.11767-54.605a246.972 246.972 0 0 1 28.91358-19.00779l7.8164 13.96094a231.00929 231.00929 0 0 0 -27.0332 17.77343c-19.28955 14.6968-36.07324 32.26465-48.53613 50.8042z" fill="#92afef" data-original="#92afef" class=""/><path d="m464.4126 164.832c-2.356-3.10791-4.83008-6.207-7.353-9.21094-23.6875-28.20019-52.856-49.54248-82.13232-60.0957l5.42572-15.05173c31.89062 11.49512 63.4834 34.52832 88.958 64.85645 2.69384 3.207 5.33593 6.5166 7.85253 9.83691z" fill="#ffc7d3" data-original="#ffc7d3" class=""/><path d="m358.32715 90.74023a103.89489 103.89489 0 0 0 -14.85156-2.104l1.04882-15.96582a119.994 119.994 0 0 1 17.14844 2.42334z" fill="#ffc7d3" data-original="#ffc7d3" class=""/><path d="m360.10547 448.07471-.21094-15.999 1.07276-.01611c4.8081-.084 9.65185-.31689 14.40283-.69238l1.25976 15.95019c-5.07568.40088-10.24853.64991-15.37549.73926z" fill="#bdecdc" data-original="#bdecdc" class=""/><path d="m393.17432 445.44238-2.34864-15.82715c25.91846-3.8457 49.78125-12.0747 69.00977-23.79785l8.3291 13.66114c-21.04101 12.82812-46.97217 21.80615-74.99023 25.96386z" fill="#bdecdc" data-original="#bdecdc" class=""/><path d="m124.268 99.112 8.485 63.938 108.178-82.422z" fill="#7f9ae5" data-original="#7f9ae5" class=""/><path d="m132.753 163.05-57.271 43.635 116.663-18.484z" fill="#7f9ae5" data-original="#7f9ae5" class=""/><path d="m132.753 163.05 59.392 25.151 48.786-107.573z" fill="#4458a0" data-original="#6c85e0" class=""/><path d="m434.28394 234.52405a24.00243 24.00243 0 0 0 -40.16211 5.363l-21.08277-6.15705-2.42529-21.82959a23.99816 23.99816 0 1 0 -16.25671-1.4223l2.89587 26.06427-10.02271 8.4187a23.99991 23.99991 0 1 0 10.29078 12.2512l10.0227-8.41882 25.17261 7.35156a24.00044 24.00044 0 1 0 41.56763-21.621z" fill="#9a4755" data-original="#d66376" class=""/></g></g></svg>
