<svg id="Capa_1" enable-background="new 0 0 512 512" height="512" viewBox="0 0 512 512" width="512" xmlns="http://www.w3.org/2000/svg"><g><g><path d="m75.648 380.66v-237.985c0-5.954 4.45-10.78 9.939-10.78h340.827c5.489 0 9.939 4.826 9.939 10.78v237.985" fill="#dfedff"/><g><path d="m477.869 367.175v-265.232c0-5.479-4.646-9.921-10.377-9.921h-422.983c-5.731 0-10.377 4.442-10.377 9.921v265.232h-24.594c0 15.348 6.226 29.243 16.282 39.299 10.056 10.066 23.951 16.282 39.299 16.282h145.879 90.003 145.879c30.696 0 55.581-24.885 55.581-55.581z" fill="#80b6ff"/><path d="m426.747 132.651h-341.494c-5.5 0-9.958 4.552-9.958 10.167v224.453h124.262v15.363h105.539l-.668-15.363h132.277v-224.453c0-5.615-4.458-10.167-9.958-10.167z" fill="#dfedff"/></g></g><g><circle cx="256" cy="421.434" r="10"/><path d="m309.645 215.658c-.008-.04-.016-.079-.023-.119-1.031-5.061-5.352-8.798-10.509-9.089-5.162-.299-9.871 2.936-11.465 7.848-.037.114-.072.23-.105.346l-8.423 29.548-8.747-29.647c-.035-.119-.073-.238-.113-.356-1.645-4.897-6.389-8.07-11.549-7.729-5.154.346-9.436 4.131-10.412 9.204-.007.038-.014.075-.021.114l-10.58 58.615c-.983 5.446 2.635 10.658 8.08 11.64 5.447.986 10.657-2.634 11.64-8.08l4.087-22.644 6.857 23.243c.035.118.072.237.112.354 1.56 4.646 5.89 7.757 10.786 7.757.02 0 .039-.001.059-.001 4.92-.024 9.247-3.186 10.766-7.866.037-.114.072-.23.105-.346l6.617-23.211 4.36 22.815c1.039 5.435 6.287 9.002 11.722 7.961 5.435-1.039 9-6.287 7.961-11.722z"/><path d="m217.505 227.069c5.534 0 10.02-4.486 10.02-10.02 0-5.533-4.486-10.02-10.02-10.02h-25.131c-5.534 0-10.02 4.486-10.02 10.02v59.643c0 5.533 4.486 10.02 10.02 10.02h25.131c5.534 0 10.02-4.486 10.02-10.02s-4.486-10.02-10.02-10.02h-15.111v-9.782h13.258c5.534 0 10.02-4.486 10.02-10.02 0-5.533-4.486-10.02-10.02-10.02h-13.258v-9.783h15.111z"/><path d="m138.714 207.645h-16.544c-2.66 0-5.212 1.059-7.091 2.941-1.88 1.884-2.933 4.436-2.928 7.097v.041.001 57.402c0 5.811 4.105 10.969 10.176 10.969.501-.002 12.316.084 17.047 0 19.091-.333 32.949-16.906 32.949-39.225-.001-23.462-13.507-39.226-33.609-39.226zm.308 58.285c-1.611.028-4.138.052-6.747.071-.021-6.604-.056-31.427-.067-38.317h6.506c12.591 0 13.569 14.686 13.569 19.187 0 9.371-4.1 18.899-13.261 19.059z"/><path d="m366.133 206.431c-22.12 0-40.116 17.996-40.116 40.115s17.996 40.115 40.116 40.115 40.115-17.996 40.115-40.115-17.995-40.115-40.115-40.115zm0 60.192c-11.07 0-20.077-9.006-20.077-20.076s9.006-20.076 20.077-20.076c11.07 0 20.076 9.006 20.076 20.076s-9.006 20.076-20.076 20.076z"/><path d="m501.98 355.942h-14.092v-227.135c0-26.611-21.649-48.26-48.26-48.26h-367.256c-26.611 0-48.26 21.65-48.26 48.26v227.135h-14.092c-2.658 0-5.206 1.056-7.085 2.934-1.879 1.88-2.935 4.428-2.935 7.085 0 17.49 6.814 33.935 19.182 46.303 12.362 12.374 28.808 19.189 46.311 19.189h145.594c5.534 0 10.02-4.486 10.02-10.02s-4.486-10.02-10.02-10.02h-145.595c-12.146 0-23.558-4.728-32.137-13.316-6.173-6.172-10.352-13.805-12.214-22.117h169.429v4.679c0 5.533 4.486 10.02 10.02 10.02h103.57c5.534 0 10.02-4.486 10.02-10.02v-4.679h176.668c-4.576 20.258-22.72 35.433-44.34 35.433h-145.595c-5.534 0-10.02 4.486-10.02 10.02s4.486 10.02 10.02 10.02h145.594c36.113 0 65.492-29.38 65.492-65.492.001-5.533-4.485-10.019-10.019-10.019zm-457.829-227.135c0-15.562 12.659-28.221 28.221-28.221h367.256c15.561 0 28.221 12.659 28.221 28.221v227.135h-21.477v-214.108c0-11.005-8.953-19.959-19.958-19.959h-340.827c-11.005 0-19.958 8.954-19.958 19.959v214.108h-21.478zm260.009 227.135c-5.534 0-10.02 4.486-10.02 10.02v4.679h-83.532v-4.679c0-5.533-4.486-10.02-10.02-10.02h-114.921v-214.028h340.665v214.027h-122.172z"/></g></g></svg>