<svg id="Capa_1" enable-background="new 0 0 497 497" height="512" viewBox="0 0 497 497" width="512" xmlns="http://www.w3.org/2000/svg"><g><path d="m497 123.06v295.6c0 43.27-35.07 78.34-78.34 78.34h-340.32c-43.27 0-78.34-35.07-78.34-78.34v-295.6l248.5-31.98z" fill="#90d3f1"/><path d="m497 78.34v44.72h-497v-44.72c0-43.27 35.07-78.34 78.34-78.34h340.32c43.27 0 78.34 35.07 78.34 78.34z" fill="#5c84d9"/><path d="m35.575 280.494c0-58.201 10.809-114.061 30.66-165.958l-66.235 8.524v295.6c0 43.27 35.07 78.34 78.34 78.34h10.717c-34.262-65.438-53.482-138.891-53.482-216.506z" fill="#59c2e7"/><path d="m129.19 0h-50.85c-43.27 0-78.34 35.07-78.34 78.34v44.72h63.073c15.895-44.1 38.284-85.443 66.117-123.06z" fill="#4677d4"/><path d="m78.337 426c-4.597 0-8.337-3.74-8.337-8.337v-220.326c0-4.597 3.74-8.337 8.337-8.337h340.326c4.597 0 8.337 3.74 8.337 8.337v220.326c0 4.597-3.74 8.337-8.337 8.337z" fill="#ff748f"/><circle cx="91.564" cy="61.53" fill="#ff748f" r="21.564"/><circle cx="170.298" cy="61.53" fill="#90d3f1" r="21.564"/><circle cx="249.033" cy="61.53" fill="#fff" r="21.564"/><g><g fill="#e0e0e0"><path d="m138.846 328.919c4.143 0 7.5-3.358 7.5-7.5s-3.357-7.5-7.5-7.5h-22.965c-4.143 0-7.5 3.358-7.5 7.5v54.503c0 4.142 3.357 7.5 7.5 7.5h22.965c4.143 0 7.5-3.358 7.5-7.5s-3.357-7.5-7.5-7.5h-15.465v-12.251h13.771c4.143 0 7.5-3.358 7.5-7.5s-3.357-7.5-7.5-7.5h-13.771v-12.251h15.465z"/><path d="m201.002 335.213c0-12.018-10.141-21.795-22.604-21.795-14.298 0-14.777 0-14.635 0-4.143 0-7.5 3.358-7.5 7.5v55.005c0 4.142 3.357 7.5 7.5 7.5s7.5-3.358 7.5-7.5v-13.916l16.609 18.871c2.74 3.114 7.48 3.408 10.585.675 3.109-2.737 3.411-7.476.675-10.585l-13.345-15.162c8.845-2.96 15.215-11.07 15.215-20.593zm-22.605 6.795c-1.664 0-4.402.011-7.057.023-.035-7.21-.013-5.172-.037-13.613h7.094c4.122 0 7.604 3.112 7.604 6.795.001 3.683-3.482 6.795-7.604 6.795z"/><path d="m256.921 335.213c0-12.018-10.14-21.795-22.604-21.795-14.298 0-14.777 0-14.635 0-4.143 0-7.5 3.358-7.5 7.5v55.005c0 4.142 3.357 7.5 7.5 7.5s7.5-3.358 7.5-7.5v-13.916l16.608 18.871c2.74 3.113 7.48 3.408 10.585.675 3.109-2.736 3.411-7.476.675-10.585l-13.344-15.162c8.845-2.96 15.215-11.07 15.215-20.593zm-22.604 6.795c-1.664 0-4.402.011-7.057.023-.034-6.902-.013-3.898-.037-13.613h7.094c4.121 0 7.604 3.112 7.604 6.795s-3.483 6.795-7.604 6.795z"/><path d="m373.404 355.806c8.845-2.959 15.215-11.07 15.215-20.593 0-12.018-10.141-21.795-22.604-21.795-14.298 0-14.777 0-14.635 0-4.143 0-7.5 3.358-7.5 7.5v55.005c0 4.142 3.357 7.5 7.5 7.5s7.5-3.358 7.5-7.5v-13.916l16.609 18.871c2.74 3.114 7.48 3.408 10.585.675 3.109-2.737 3.411-7.476.675-10.585zm-7.39-27.389c4.122 0 7.604 3.112 7.604 6.795s-3.482 6.795-7.604 6.795c-1.664 0-4.402.011-7.057.023-.034-6.902-.013-3.898-.037-13.613z"/><path d="m300.345 313.417c-19.3 0-35.002 15.702-35.002 35.002s15.702 35.002 35.002 35.002c19.301 0 35.003-15.702 35.003-35.002s-15.703-35.002-35.003-35.002zm0 55.005c-11.029 0-20.002-8.973-20.002-20.002s8.973-20.002 20.002-20.002 20.003 8.973 20.003 20.002-8.974 20.002-20.003 20.002z"/></g></g><g fill="#423e4f"><path d="m162.447 263.218 6.59-6.59 6.59 6.59c2.93 2.929 7.678 2.929 10.607 0s2.929-7.678 0-10.606l-6.591-6.591 6.591-6.591c2.929-2.929 2.929-7.678 0-10.606-2.93-2.929-7.678-2.929-10.607 0l-6.59 6.59-6.59-6.59c-2.93-2.929-7.678-2.929-10.607 0s-2.929 7.678 0 10.606l6.591 6.591-6.591 6.591c-2.929 2.929-2.929 7.678 0 10.606 2.93 2.929 7.677 2.929 10.607 0z"/><path d="m345.16 252.611-6.591-6.591 6.591-6.591c2.93-2.929 2.93-7.677.001-10.606s-7.678-2.929-10.606 0l-6.592 6.592-6.592-6.592c-2.928-2.93-7.677-2.929-10.606 0s-2.929 7.678.001 10.606l6.591 6.591-6.591 6.591c-2.93 2.929-2.93 7.677-.001 10.606 2.928 2.928 7.677 2.93 10.606 0l6.592-6.592 6.592 6.592c2.927 2.929 7.677 2.929 10.606 0 2.929-2.928 2.929-7.677-.001-10.606z"/><path d="m286.232 278.037c3.614 2.02 8.186.729 10.206-2.886 2.021-3.615.729-8.185-2.886-10.207-7.365-4.118-16.513-4.117-23.878 0-2.848 1.592-6.388 1.593-9.235 0-7.365-4.119-16.514-4.118-23.879 0-2.848 1.593-6.386 1.593-9.235-.001-7.365-4.118-16.513-4.117-23.878 0-3.615 2.021-4.906 6.591-2.885 10.207 2.022 3.616 6.593 4.908 10.207 2.885 2.848-1.593 6.387-1.592 9.234 0 7.363 4.119 16.512 4.121 23.878.001 2.85-1.594 6.388-1.593 9.235 0 7.366 4.119 16.516 4.118 23.88 0 2.847-1.592 6.385-1.592 9.236.001z"/></g></g></svg>