<svg id="Capa_1" enable-background="new 0 0 512 512" height="512" viewBox="0 0 512 512" width="512" xmlns="http://www.w3.org/2000/svg"><g><path d="m264.66 5.096 54.57 98.254 108.063-30.889c7.473-2.136 14.383 4.774 12.247 12.247l-30.89 108.062 98.254 54.57c6.795 3.774 6.795 13.546 0 17.32l-98.254 54.57 30.889 108.063c2.136 7.473-4.774 14.383-12.247 12.247l-108.062-30.89-54.57 98.254c-3.774 6.795-13.546 6.795-17.32 0l-54.57-98.254-108.062 30.889c-7.473 2.136-14.383-4.774-12.247-12.247l30.889-108.062-98.254-54.57c-6.795-3.774-6.795-13.546 0-17.32l98.254-54.57-30.889-108.062c-2.136-7.473 4.774-14.383 12.247-12.247l108.062 30.889 54.57-98.254c3.774-6.795 13.546-6.795 17.32 0z" fill="#fde734"/><path d="m506.901 264.664-98.248 54.569 30.885 108.056c2.143 7.479-4.77 14.392-12.249 12.249l-108.056-30.885-54.569 98.249c-3.781 6.799-13.547 6.799-17.328 0l-26.383-47.512c201.967-134.202 163.83-301.41 137.941-367.373l68.394-19.553c7.479-2.143 14.392 4.77 12.249 12.249l-30.885 108.056 98.248 54.568c6.8 3.78 6.8 13.546.001 17.327z" fill="#e2c92c"/><path d="m439.537 84.712-30.885 108.056 1.648.917-154.403 144.554.361.36c9.849 1.082 18.986 5.439 26.095 12.548 17.08 17.08 17.08 44.875 0 61.955-8.272 8.283-19.275 12.836-30.978 12.836s-22.705-4.553-30.978-12.836c-7.294-7.294-11.456-16.534-12.527-26.064l-5.841-5.841c-10.601 1.669-28.897 7.891-51.458 29.216l-14.423 14.423-51.437 14.7c-2.38.68-4.708.443-6.696-.433l361.089-361.087c.876 1.988 1.113 4.316.433 6.696z" fill="#e2c92c"/><g><g><path d="m124.447 366.691c.07.023.143.035.213.059 11.001 3.856 22.021 7.658 33.038 11.47 35.055-23.736 59.223-17.424 59.223-17.424l-65.715-65.715c-.001.001 7.845 29.985-26.759 71.61z" fill="#b9acac"/><path d="m151.205 295.081s2.864 10.93-2.481 28.751l39.444 39.444c17.822-5.345 28.751-2.481 28.751-2.481z" fill="#9e9797"/><path d="m129.658 360.106c-3.777 5.045-8.174 10.287-13.296 15.692l-60.568 60.568 19.843 19.843 60.568-60.568c11.049-10.471 21.418-17.921 30.808-23.206-12.441-4.143-24.904-8.219-37.355-12.329z" fill="#faf7f7"/><g><g><g><path d="m223.441 340.4 240.252-224.933c2.124-1.951 3.208-4.786 2.927-7.656l-4.82-49.364c-.426-4.366-3.881-7.821-8.248-8.248l-49.364-4.821c-2.87-.28-5.705.804-7.656 2.927l-224.933 240.253z" fill="#31a7fb"/><path d="m463.689 115.465-240.245 224.937-20.485-20.485 234.138-219.219c2.12-1.948 3.211-4.781 2.932-7.649l-4.357-44.596 17.878 1.75c4.366.424 7.821 3.879 8.254 8.245l4.817 49.368c.279 2.868-.803 5.7-2.932 7.649z" fill="#1c96f9"/></g><g><path d="m113.32 307.748h154.607v27.256h-154.607z" fill="#fdef63" transform="matrix(.707 .707 -.707 .707 283.08 -40.662)"/><g><g><circle cx="129.87" cy="260.623" fill="#915eb2" r="23.206"/><g><path d="m146.28 277.029c-9.064 9.064-23.756 9.069-32.819.005-2.22-2.22-3.897-4.776-5.02-7.506 8.412 3.495 18.464 1.813 25.308-5.031 6.839-6.839 8.521-16.89 5.026-25.303 2.73 1.124 5.286 2.801 7.506 5.02 9.063 9.065 9.057 23.757-.001 32.815z" fill="#804ea0"/></g><circle cx="251.376" cy="382.129" fill="#915eb2" r="23.206"/><path d="m267.79 398.539c-9.064 9.064-23.761 9.064-32.825 0-2.22-2.22-3.897-4.776-5.02-7.506 8.412 3.495 18.469 1.818 25.313-5.026 6.839-6.839 8.516-16.895 5.02-25.308 2.73 1.124 5.286 2.801 7.506 5.02 9.064 9.064 9.064 23.762.006 32.82z" fill="#804ea0"/></g></g></g></g></g><g><g><circle cx="68.542" cy="443.457" fill="#915eb2" r="23.206"/><path d="m84.956 459.867c-9.064 9.064-23.761 9.064-32.825 0-2.22-2.22-3.897-4.776-5.02-7.506 8.412 3.495 18.469 1.818 25.313-5.026 6.839-6.839 8.516-16.895 5.02-25.308 2.73 1.124 5.286 2.801 7.506 5.02 9.064 9.064 9.064 23.762.006 32.82z" fill="#804ea0"/></g></g><g fill="#efe2dd"><path d="m139.631 392.468c-1.133 1.02-2.277 2.081-3.43 3.173l-7.644 7.644c-.103-.113-.216-.237-.319-.36l-16.689-19.615c-.433-.515-.793-1.061-1.061-1.638l5.872-5.872c1.453-1.535 2.854-3.06 4.183-4.574 1.04.453 1.988 1.143 2.771 2.07z"/><path d="m116.256 415.585-11.26 11.26c-.608-.608-1.123-1.318-1.504-2.132l-11.651-24.395 11.002-11.002c.896.711 1.638 1.628 2.163 2.73z"/></g></g></g></g></svg>