<?xml version="1.0" encoding="UTF-8"?>
<svg xmlns="http://www.w3.org/2000/svg" xmlns:xlink="http://www.w3.org/1999/xlink" xmlns:svgjs="http://svgjs.com/svgjs" version="1.1" width="24" height="24" x="0" y="0" viewBox="0 0 3.89468 24" style="enable-background:new 0 0 512 512" xml:space="preserve" class="">
  <g>
    <g xmlns="http://www.w3.org/2000/svg" id="图层_x0020_1">
      <circle cx="24" cy="24" fill="#8e97a5" r="1.947" data-original="#00ccff" class=""/>
      <path d="m1.9601 1.26907.8502.86812h.00002v.00002.95276h-.51811v-.61337c0-.15837-.14942-.28792-.33211-.28792-.18268 0-.33211.12955-.33211.28792v.61337h-.5181v-.95276-.00002h.00001zm-1.2438.90179c.05221.05288.13807.05306.19055.00071l1.04457-1.04229 1.03648 1.03413c.0526.0525.13833.05218.19054-.0007.05221-.05288.05176-.13923-.0007-.19157l-1.12953-1.12698c-.02302-.02297-.05249-.03581-.08271-.03854-.03937-.00458-.08041.00815-.11056.03824l-1.13794 1.13544c-.0526.05249-.05291.13868-.0007.19156z" fill="#8e97a5" data-original="#ffffff"/>
    </g>
  </g>
</svg>
