<svg id="Capa_1" enable-background="new 0 0 512 512" height="512" viewBox="0 0 512 512" width="512" xmlns="http://www.w3.org/2000/svg"><g><g><path d="m512 333.046v-252.344c0-11.379-9.225-20.604-20.604-20.604h-470.792c-11.379.001-20.604 9.225-20.604 20.604v252.343h512z" fill="#f8f3f1"/><path d="m187.781 206.778v11.734c0 15.257-9.642 28.979-23.983 34.161l-16.998 6.14c-7.335 2.648-14.268 6.295-20.614 10.848l-1.051.752-1.061-.752c-5.717-4.11-11.919-7.479-18.461-10.034 6.037-4.203 12.599-7.592 19.532-10.086l16.988-6.14c12.774-4.615 21.83-15.999 23.643-29.216z" fill="#b5dbfd"/><path d="m480.579 80.705v252.341h31.421v-252.341c0-11.384-9.22-20.604-20.604-20.604h-31.421c11.384 0 20.604 9.22 20.604 20.604z" fill="#efe2dd"/><path d="m0 383.141v48.157c0 11.379 9.225 20.604 20.604 20.604h470.793c11.379 0 20.604-9.224 20.604-20.604v-48.157z" fill="#b9acac"/><path d="m480.579 383.141v48.155c0 11.384-9.22 20.604-20.604 20.604h31.421c11.383 0 20.604-9.22 20.604-20.604v-48.155z" fill="#9e9797"/></g><g><path d="m86.473 252.673c-14.393-5.196-23.985-18.857-23.985-34.16v-89.897c0-2.422 1.687-4.517 4.054-5.033l57.495-12.535c.723-.158 1.471-.158 2.194 0l57.495 12.535c2.366.516 4.054 2.611 4.054 5.033v89.899" fill="#a176bd"/><path d="m187.613 221.827c.101-1.096.168-2.2.168-3.316v-89.896c0-2.422-1.688-4.517-4.054-5.033l-17.6-3.835v89.492c0 4.381-.818 8.625-2.292 12.587h23.778z" fill="#915eb2"/><path d="m187.778 206.78v11.737c0 15.246-9.636 28.979-23.98 34.155l-16.993 6.134c-7.341 2.648-14.272 6.303-20.615 10.851l-1.055.757-1.055-.757c-6.343-4.548-13.274-8.203-20.615-10.851l-16.993-6.134c-4.709-1.698-8.911-4.323-12.429-7.615z" fill="#b5dbfd"/><path d="m187.781 206.778v11.734c0 15.257-9.642 28.979-23.983 34.161l-16.998 6.14c-7.335 2.648-14.268 6.295-20.614 10.848l-1.051.752-1.061-.752c-5.717-4.11-11.919-7.479-18.461-10.034 6.037-4.203 12.599-7.592 19.532-10.086l16.988-6.14c12.774-4.615 21.83-15.999 23.643-29.216z" fill="#8dcafc"/><path d="m129.185 143.869 7.099 9.709 11.428 3.751c3.226 1.059 4.491 4.951 2.503 7.704l-7.04 9.752-.036 12.028c-.01 3.396-3.32 5.801-6.553 4.761l-11.451-3.682-11.451 3.682c-3.233 1.04-6.543-1.365-6.553-4.761l-.036-12.028-7.04-9.752c-1.988-2.753-.723-6.645 2.503-7.704l11.428-3.751 7.099-9.709c2.004-2.741 6.095-2.741 8.1 0z" fill="#fde734"/></g><g><g><path d="m334.784 212.933h-78.244c-2.845 0-5.151 2.306-5.151 5.151v23.635c0 2.845 2.306 5.151 5.151 5.151h78.244z" fill="#27d1b3"/><path d="m332.118 212.933v33.937h113.39c2.845 0 5.151-2.306 5.151-5.151v-23.635c0-2.845-2.306-5.151-5.151-5.151z" fill="#b9acac"/><path d="m450.66 218.081v23.643c0 2.843-2.308 5.151-5.151 5.151h-21.366c2.843 0 5.151-2.308 5.151-5.151v-23.643c0-2.843-2.308-5.151-5.151-5.151h21.366c2.844 0 5.151 2.308 5.151 5.151z" fill="#9e9797"/></g><g><g><g><g><path d="m408.503 183.772c-4.267 0-7.726-3.459-7.726-7.726v-38.787c-2.784.263-5.619-.997-7.237-3.515-2.307-3.59-1.268-8.37 2.321-10.678l8.464-5.441c2.377-1.529 5.399-1.637 7.88-.282s4.024 3.955 4.024 6.782v51.921c0 4.267-3.459 7.726-7.726 7.726z" fill="#1c96f9"/></g></g><g><g><path d="m371.352 183.772c-4.267 0-7.726-3.459-7.726-7.726v-2.16h-22.381c-2.896 0-5.549-1.62-6.872-4.195-1.323-2.576-1.096-5.676.591-8.03l30.107-42.034c1.955-2.729 5.447-3.884 8.644-2.857 3.196 1.027 5.364 3.999 5.364 7.356v34.313c4.131.155 7.432 3.552 7.432 7.721s-3.301 7.566-7.432 7.721v2.166c-.001 4.266-3.46 7.725-7.727 7.725zm-15.07-25.339h7.343v-10.252z" fill="#1c96f9"/></g></g></g><g fill="#9e9797"><path d="m271.113 183.772h-19.724c-4.267 0-7.726-3.459-7.726-7.726v-43.767c0-4.267 3.459-7.726 7.726-7.726s7.726 3.459 7.726 7.726v36.04h11.997c4.267 0 7.726 3.459 7.726 7.726.001 4.268-3.458 7.727-7.725 7.727z"/><path d="m297.605 183.772c-3 0-5.73-1.737-7-4.456l-13.4-28.676c-1.806-3.866-.137-8.464 3.729-10.271 3.865-1.806 8.464-.137 10.271 3.729l6.4 13.697 6.4-13.697c1.807-3.866 6.404-5.537 10.271-3.729 3.866 1.807 5.536 6.405 3.729 10.271l-13.4 28.676c-1.27 2.719-4 4.456-7 4.456z"/></g></g></g><g fill="#9e9797"><path d="m279.908 286.803h-28.52c-4.267 0-7.726-3.459-7.726-7.726s3.459-7.726 7.726-7.726h28.52c4.267 0 7.726 3.459 7.726 7.726.001 4.267-3.458 7.726-7.726 7.726z"/><path d="m348.817 286.803h-28.52c-4.267 0-7.726-3.459-7.726-7.726s3.459-7.726 7.726-7.726h28.52c4.267 0 7.726 3.459 7.726 7.726.001 4.267-3.458 7.726-7.726 7.726z"/><path d="m450.66 286.803h-61.454c-4.267 0-7.726-3.459-7.726-7.726s3.459-7.726 7.726-7.726h61.454c4.267 0 7.726 3.459 7.726 7.726.001 4.267-3.458 7.726-7.726 7.726z"/></g><path d="m0 325.053h512v60.492h-512z" fill="#fdef63"/><path d="m132.605 325.053-48.862 60.492h-83.743v-60.492z" fill="#a176bd"/><path d="m293.593 367.987c-1.705 0-3.421-.562-4.851-1.716-3.319-2.682-3.837-7.546-1.155-10.866l8.015-9.922c2.681-3.32 7.546-3.836 10.866-1.155 3.319 2.682 3.837 7.546 1.155 10.866l-8.015 9.922c-1.527 1.889-3.761 2.871-6.015 2.871z" fill="#27d1b3"/><path d="m480.579 325.053h31.421v60.492h-31.421z" fill="#f3d730"/><path d="m58.885 363.025h-8.702c-4.267 0-7.726-3.459-7.726-7.726s3.459-7.726 7.726-7.726h8.702c4.267 0 7.726 3.459 7.726 7.726s-3.459 7.726-7.726 7.726z" fill="#b5dbfd"/><path d="m256 363.025h-79.749c-4.267 0-7.726-3.459-7.726-7.726s3.459-7.726 7.726-7.726h79.749c4.267 0 7.726 3.459 7.726 7.726s-3.459 7.726-7.726 7.726z" fill="#27d1b3"/><path d="m417.397 363.025h-79.749c-4.267 0-7.726-3.459-7.726-7.726s3.459-7.726 7.726-7.726h79.749c4.267 0 7.726 3.459 7.726 7.726.001 4.267-3.459 7.726-7.726 7.726z" fill="#27d1b3"/><path d="m256 430.601c-1.977 0-3.955-.755-5.463-2.263l-9.406-9.405c-3.017-3.017-3.018-7.909 0-10.927 3.017-3.017 7.909-3.018 10.927 0l3.943 3.942 3.943-3.942c3.017-3.018 7.909-3.018 10.927 0s3.017 7.909 0 10.927l-9.406 9.405c-1.51 1.509-3.488 2.263-5.465 2.263z" fill="#756f6f"/></g></svg>