<svg id="Capa_1" enable-background="new 0 0 512 512" height="512" viewBox="0 0 512 512" width="512" xmlns="http://www.w3.org/2000/svg"><g><path d="m491.396 445.72h-470.792c-11.379 0-20.604-9.224-20.604-20.603v-338.234c0-11.379 9.225-20.603 20.604-20.603h470.793c11.379 0 20.604 9.225 20.604 20.604v338.233c-.001 11.379-9.226 20.603-20.605 20.603z" fill="#f8f3f1"/><path d="m512 86.886v338.229c0 11.384-9.22 20.604-20.604 20.604h-31.421c11.383 0 20.604-9.22 20.604-20.604v-338.229c0-11.384-9.22-20.604-20.604-20.604h31.421c11.384 0 20.604 9.22 20.604 20.604z" fill="#efe2dd"/><g><circle cx="104.784" cy="187.843" fill="#8dcafc" r="70.387"/><path d="m154.558 237.611c-16.957 16.957-40.404 23.457-62.336 19.491 13.619-2.452 26.671-8.952 37.2-19.491 27.485-27.485 27.485-72.051 0-99.536-10.528-10.539-23.581-17.039-37.2-19.491 21.933-3.966 45.379 2.534 62.336 19.491 27.485 27.485 27.485 72.051 0 99.536z" fill="#64b9fc"/><path d="m90.045 220.006-25.553 25.554c-3.336-2.331-6.505-4.975-9.477-7.947s-5.616-6.141-7.947-9.477l25.554-25.554z" fill="#fde734"/><path d="m92.846 222.809-23.028-23.028 87.897-95.685 28.075 2.741 2.741 28.075z" fill="#b9acac"/><path d="m105.465 243.153c-2.007 0-3.984-.781-5.465-2.263l-48.262-48.263c-2.298-2.298-2.912-5.789-1.537-8.733l3.831-8.202c1.806-3.867 6.406-5.535 10.27-3.731 3.866 1.806 5.537 6.404 3.731 10.27l-1.54 3.297 40.606 40.607 3.297-1.54c3.865-1.806 8.464-.136 10.27 3.731 1.806 3.866.135 8.464-3.731 10.27l-8.202 3.831c-1.046.488-2.162.726-3.268.726z" fill="#756f6f"/></g><g><g><path d="m54.792 312.082h-.106c-4.267 0-7.726-3.459-7.726-7.726s3.459-7.726 7.726-7.726h.106c4.267 0 7.726 3.459 7.726 7.726.001 4.267-3.459 7.726-7.726 7.726z" fill="#31a7fb"/><path d="m54.792 340.72h-.106c-4.267 0-7.726-3.459-7.726-7.726s3.459-7.726 7.726-7.726h.106c4.267 0 7.726 3.459 7.726 7.726.001 4.267-3.459 7.726-7.726 7.726z" fill="#20b69f"/><path d="m54.793 369.357c-.013 0-.025 0-.038 0l-.106-.001c-4.267-.02-7.71-3.496-7.69-7.763.02-4.255 3.476-7.69 7.725-7.69h.038.106c4.267.02 7.71 3.496 7.69 7.763-.02 4.256-3.475 7.691-7.725 7.691z" fill="#fb5fa7"/><path d="m54.793 397.994c-.013 0-.025 0-.038 0l-.106-.001c-4.267-.02-7.71-3.496-7.69-7.763.02-4.255 3.476-7.69 7.725-7.69h.038.106c4.267.02 7.71 3.496 7.69 7.763-.02 4.256-3.475 7.691-7.725 7.691z" fill="#f3d730"/></g><g><path d="m178.939 312.082h-92.823c-4.267 0-7.726-3.459-7.726-7.726s3.459-7.726 7.726-7.726h92.823c4.267 0 7.726 3.459 7.726 7.726s-3.459 7.726-7.726 7.726z" fill="#31a7fb"/><path d="m148.034 340.72h-61.918c-4.267 0-7.726-3.459-7.726-7.726s3.459-7.726 7.726-7.726h61.918c4.267 0 7.726 3.459 7.726 7.726s-3.459 7.726-7.726 7.726z" fill="#20b69f"/><path d="m166.577 369.357-80.461-.001c-4.267 0-7.726-3.459-7.726-7.726s3.46-7.726 7.726-7.726h80.461c4.267 0 7.726 3.459 7.726 7.726 0 4.268-3.459 7.727-7.726 7.727z" fill="#fb5fa7"/><path d="m209.845 397.994-123.728-.001c-4.267 0-7.726-3.459-7.726-7.726s3.46-7.726 7.726-7.726h123.728c4.267 0 7.726 3.459 7.726 7.726 0 4.268-3.459 7.727-7.726 7.727z" fill="#f3d730"/></g></g><g><path d="m453.103 157.994h-188.968c-2.845 0-5.151-2.306-5.151-5.151v-23.635c0-2.845 2.306-5.151 5.151-5.151h188.968c2.845 0 5.151 2.306 5.151 5.151v23.635c0 2.845-2.307 5.151-5.151 5.151z" fill="#27d1b3"/><path d="m339.713 124.057v33.937h113.39c2.845 0 5.151-2.306 5.151-5.151v-23.635c0-2.845-2.306-5.151-5.151-5.151z" fill="#fb5fa7"/><path d="m458.255 129.205v23.643c0 2.843-2.308 5.151-5.151 5.151h-21.366c2.843 0 5.151-2.308 5.151-5.151v-23.643c0-2.843-2.308-5.151-5.151-5.151h21.366c2.844 0 5.151 2.308 5.151 5.151z" fill="#fb4297"/></g><g><path d="m453.103 220.006h-188.968c-2.845 0-5.151-2.306-5.151-5.151v-23.635c0-2.845 2.306-5.151 5.151-5.151h188.968c2.845 0 5.151 2.306 5.151 5.151v23.635c0 2.845-2.307 5.151-5.151 5.151z" fill="#8dcafc"/><path d="m407.705 186.069v33.937h45.398c2.845 0 5.151-2.306 5.151-5.151v-23.635c0-2.845-2.306-5.151-5.151-5.151z" fill="#fb5fa7"/><path d="m458.255 191.222v23.632c0 2.843-2.308 5.151-5.151 5.151h-21.366c2.843 0 5.151-2.308 5.151-5.151v-23.632c0-2.843-2.308-5.151-5.151-5.151h21.366c2.844 0 5.151 2.308 5.151 5.151z" fill="#fb4297"/></g><g><g><path d="m296.451 310.177h-32.316c-2.845 0-5.151-2.306-5.151-5.151v-32.316c0-2.845 2.306-5.151 5.151-5.151h32.316c2.845 0 5.151 2.306 5.151 5.151v32.316c0 2.844-2.307 5.151-5.151 5.151z" fill="#27d1b3"/><path d="m301.606 272.71v32.317c0 2.843-2.308 5.151-5.151 5.151h-21.366c2.843 0 5.151-2.308 5.151-5.151v-32.317c0-2.843-2.308-5.151-5.151-5.151h21.366c2.844 0 5.151 2.307 5.151 5.151z" fill="#20b69f"/></g><g><path d="m374.723 310.177h-32.316c-2.845 0-5.151-2.306-5.151-5.151v-32.316c0-2.845 2.306-5.151 5.151-5.151h32.316c2.845 0 5.151 2.306 5.151 5.151v32.316c0 2.844-2.306 5.151-5.151 5.151z" fill="#fde734"/><path d="m379.879 272.71v32.317c0 2.843-2.308 5.151-5.151 5.151h-21.314c2.843 0 5.151-2.308 5.151-5.151v-32.317c0-2.843-2.308-5.151-5.151-5.151h21.314c2.844 0 5.151 2.307 5.151 5.151z" fill="#f3d730"/></g><g><path d="m453.103 310.177h-32.316c-2.845 0-5.151-2.306-5.151-5.151v-32.316c0-2.845 2.306-5.151 5.151-5.151h32.316c2.845 0 5.151 2.306 5.151 5.151v32.316c0 2.844-2.307 5.151-5.151 5.151z" fill="#64b9fc"/><path d="m458.255 272.71v32.317c0 2.843-2.308 5.151-5.151 5.151h-21.366c2.843 0 5.151-2.308 5.151-5.151v-32.317c0-2.843-2.308-5.151-5.151-5.151h21.366c2.844 0 5.151 2.307 5.151 5.151z" fill="#31a7fb"/></g></g><g fill="#fb5fa7"><path d="m265.505 365.991c-1.977 0-3.955-.755-5.463-2.263-3.018-3.017-3.018-7.909 0-10.927l14.789-14.789c1.449-1.449 3.414-2.263 5.463-2.263 2.049 0 4.015.814 5.463 2.263l14.788 14.789c3.018 3.018 3.018 7.909 0 10.927-3.017 3.018-7.909 3.018-10.927 0l-9.325-9.325-9.325 9.325c-1.509 1.508-3.486 2.263-5.463 2.263z"/><path d="m265.505 400.379c-1.977 0-3.955-.755-5.463-2.263-3.018-3.017-3.018-7.909 0-10.927l14.789-14.789c1.449-1.449 3.414-2.263 5.463-2.263 2.049 0 4.015.814 5.463 2.263l14.788 14.789c3.018 3.018 3.018 7.909 0 10.927-3.017 3.018-7.909 3.018-10.927 0l-9.325-9.325-9.325 9.325c-1.509 1.509-3.486 2.263-5.463 2.263z"/></g><g fill="#fb5fa7"><path d="m358.619 377.752c-4.267 0-7.726-3.459-7.726-7.726v-26.55c0-4.267 3.459-7.726 7.726-7.726s7.726 3.459 7.726 7.726v26.55c0 4.267-3.459 7.726-7.726 7.726z"/><path d="m358.673 400.38c-.013 0-.025 0-.037 0l-.107-.001c-4.267-.02-7.71-3.495-7.69-7.763.02-4.255 3.476-7.69 7.725-7.69h.037l.107.001c4.267.02 7.71 3.495 7.69 7.763-.02 4.255-3.475 7.69-7.725 7.69z"/></g><g><g><path d="m436.945 374.661c-4.267 0-7.726-3.459-7.726-7.726v-23.459c0-4.267 3.459-7.726 7.726-7.726s7.726 3.459 7.726 7.726v23.459c0 4.267-3.459 7.726-7.726 7.726z" fill="#fb5fa7"/></g><g><path d="m448.675 362.932h-23.459c-4.267 0-7.726-3.459-7.726-7.726s3.459-7.726 7.726-7.726h23.459c4.267 0 7.726 3.459 7.726 7.726s-3.459 7.726-7.726 7.726z" fill="#fb5fa7"/></g></g><path d="m448.675 400.379h-23.459c-4.267 0-7.726-3.459-7.726-7.726s3.459-7.726 7.726-7.726h23.459c4.267 0 7.726 3.459 7.726 7.726s-3.459 7.726-7.726 7.726z" fill="#fb5fa7"/></g></svg>